<svg width="24" height="24" viewBox="0 0 24 24" fill="none" xmlns="http://www.w3.org/2000/svg">
<rect width="24" height="24" rx="5" fill="white"/>
<path d="M4 8.66667L11.0133 13.3422C11.3055 13.5371 11.6488 13.6412 12 13.6412C12.3512 13.6412 12.6945 13.5371 12.9867 13.3422L20 8.66667M5.77778 18.4444H18.2222C18.6937 18.4444 19.1459 18.2571 19.4793 17.9237C19.8127 17.5903 20 17.1382 20 16.6667V7.77778C20 7.30628 19.8127 6.8541 19.4793 6.5207C19.1459 6.1873 18.6937 6 18.2222 6H5.77778C5.30628 6 4.8541 6.1873 4.5207 6.5207C4.1873 6.8541 4 7.30628 4 7.77778V16.6667C4 17.1382 4.1873 17.5903 4.5207 17.9237C4.8541 18.2571 5.30628 18.4444 5.77778 18.4444Z" stroke="#242424" stroke-width="1.77778" stroke-linecap="round" stroke-linejoin="round"/>
</svg>
