<svg width="24" height="24" viewBox="0 0 24 24" fill="none" xmlns="http://www.w3.org/2000/svg">
<path d="M3 21L9 15L3 21ZM7 10C7 10.9193 7.18106 11.8295 7.53284 12.6788C7.88463 13.5281 8.40024 14.2997 9.05025 14.9497C9.70026 15.5998 10.4719 16.1154 11.3212 16.4672C12.1705 16.8189 13.0807 17 14 17C14.9193 17 15.8295 16.8189 16.6788 16.4672C17.5281 16.1154 18.2997 15.5998 18.9497 14.9497C19.5998 14.2997 20.1154 13.5281 20.4672 12.6788C20.8189 11.8295 21 10.9193 21 10C21 8.14348 20.2625 6.36301 18.9497 5.05025C17.637 3.7375 15.8565 3 14 3C12.1435 3 10.363 3.7375 9.05025 5.05025C7.7375 6.36301 7 8.14348 7 10Z" stroke="#A4B9DB" stroke-width="1.5" stroke-linecap="round" stroke-linejoin="round"/>
</svg>
